<?xml version="1.0" encoding="UTF-8"?>
<svg id="Layer_2" data-name="Layer 2" xmlns="http://www.w3.org/2000/svg" viewBox="0 0 138.68 21.24">
  <defs>
    <style>
      .cls-1 {
        fill: #010101;
        stroke-width: 0px;
      }
    </style>
  </defs>
  <g id="Layer_1-2" data-name="Layer 1">
    <path id="path1" class="cls-1" d="M5.27,5.74c-.1-.4-.08-.82-.02-1.04.13-.63.57-1.33,1.81-1.33,1.16,0,1.84.72,1.84,1.8v1.22h4.95v-1.39C13.86.69,9.97,0,7.16,0,3.65,0,.77,1.17.24,4.41c-.14.89-.17,1.67.04,2.67.86,4.05,7.9,5.22,8.93,7.79.19.48.13,1.09.04,1.46-.16.66-.61,1.34-1.94,1.34-1.24,0-1.98-.72-1.98-1.8v-1.91H0v1.51c0,4.43,3.48,5.77,7.21,5.77s6.52-1.22,7-4.54c.24-1.71.06-2.83-.02-3.25-.83-4.17-8.35-5.4-8.92-7.72ZM69.74,5.78c-.09-.39-.06-.81-.02-1.02.14-.64.57-1.33,1.8-1.33,1.14,0,1.81.72,1.81,1.79v1.21h4.89v-1.38c0-4.27-3.83-4.94-6.6-4.94-3.49,0-6.34,1.15-6.86,4.36-.14.87-.17,1.65.05,2.64.85,4.01,7.82,5.17,8.84,7.7.18.48.13,1.09.03,1.45-.15.66-.6,1.32-1.91,1.32-1.24,0-1.98-.71-1.98-1.78v-1.9h-5.26v1.51c0,4.38,3.43,5.7,7.13,5.7s6.47-1.21,6.93-4.49c.23-1.69.06-2.8-.03-3.21-.81-4.11-8.25-5.34-8.82-7.64h0ZM114.76,16.59l-4.67-15.96h-7.36v19.62h4.87l-.28-16.47,5.02,16.47h7.05V.63h-4.9l.27,15.96ZM21.22.62l-3.67,19.82h5.36l2.77-18.35,2.7,18.35h5.32L30.03.62h-8.81ZM51.17.62l-2.5,15.5-2.5-15.5h-8.09l-.43,19.82h4.96l.13-18.35,3.41,18.35h5.03l3.41-18.35.13,18.35h4.97l-.44-19.82h-8.08ZM97.23.62h-5.02v14.66c0,.25,0,.54-.05.75-.1.49-.52,1.44-1.91,1.44s-1.79-.95-1.89-1.44c-.05-.21-.06-.5-.05-.75V.62h-5v14.21c0,.36.02,1.12.05,1.31.35,3.7,3.26,4.91,6.91,4.91s6.57-1.2,6.92-4.91c.03-.2.06-.94.04-1.31V.62h0ZM131.66,9.33v2.89h2.03v2.87c0,.25,0,.53-.05.75-.08.54-.59,1.44-2.03,1.44s-1.94-.91-2.02-1.44c-.03-.22-.05-.5-.05-.75V6.02c0-.32.02-.67.09-.94.1-.49.53-1.43,1.97-1.43s1.9,1.01,1.98,1.43c.06.28.06.76.06.76v1.1h4.99v-.65s.02-.68-.04-1.31c-.38-3.72-3.44-4.89-6.95-4.89s-6.52,1.19-6.96,4.89c-.04.34-.1.95-.1,1.31v8.33c0,.36.01.64.08,1.31.32,3.62,3.46,4.9,6.97,4.9s6.64-1.28,6.97-4.9c.06-.66.06-.94.08-1.31v-5.31h-7.02Z"/>
  </g>
</svg>