<?xml version="1.0" encoding="UTF-8" standalone="no"?>
<svg
   version="1.1"
   width="15.7480in"
   height="11.8110in"
   viewBox="0 0 1133.8583 850.3937"
   id="svg32"
   sodipodi:docname="Polytron.cdr"
   xmlns:inkscape="http://www.inkscape.org/namespaces/inkscape"
   xmlns:sodipodi="http://sodipodi.sourceforge.net/DTD/sodipodi-0.dtd"
   xmlns="http://www.w3.org/2000/svg"
   xmlns:svg="http://www.w3.org/2000/svg">
  <defs
     id="defs32" />
  <sodipodi:namedview
     id="namedview32"
     pagecolor="#ffffff"
     bordercolor="#000000"
     borderopacity="0.25"
     inkscape:showpageshadow="2"
     inkscape:pageopacity="0.0"
     inkscape:pagecheckerboard="0"
     inkscape:deskcolor="#d1d1d1"
     inkscape:document-units="in" />
  <g
     id="Layer1000">
    <path
       d="  M0.0000,0.0000 L0.0000,850.3937 L1133.8583,850.3937 L1133.8583,0.0000 L0.0000,0.0000 Z"
       style="fill: none; "
       id="path1" />
    <g
       id="Layer1001">
      <g
         id="Layer1002">
        <path
           d="  M198.6159,363.6002 C198.6159,327.1631 156.5674,325.9169 156.5674,325.9169 L83.0756,325.9169 L83.0756,437.0930 L125.1201,437.0930 L125.1201,402.5287 L155.9448,402.5287 C201.6147,402.5287 198.6159,363.6002 198.6159,363.6002 Z Z M145.4627,375.9511 L125.1201,375.9511 L125.1201,353.7407 L146.0853,353.7407 C146.0853,353.7407 156.8904,353.6307 156.8904,362.8666 C156.8904,362.8666 159.8759,376.0316 145.4627,375.9511 Z"
           style="fill-rule: evenodd; fill: #e30016; "
           id="path2" />
      </g>
      <g
         id="Layer1003">
        <path
           d="  M267.5356,323.6894 C230.6522,323.6894 200.7537,349.5263 200.7537,381.4015 C200.7537,413.2747 230.6522,439.1126 267.5356,439.1126 C304.4200,439.1126 334.3185,413.2747 334.3185,381.4015 C334.3185,349.5263 304.4200,323.6894 267.5356,323.6894 Z Z M266.9568,412.8620 C253.2049,412.8620 242.0574,399.1223 242.0574,382.1739 C242.0574,365.2234 253.2049,351.4837 266.9568,351.4837 C280.7088,351.4837 291.8562,365.2234 291.8562,382.1739 C291.8562,399.1223 280.7088,412.8620 266.9568,412.8620 Z"
           style="fill-rule: evenodd; fill: #e30016; "
           id="path3" />
      </g>
      <g
         id="Layer1004">
        <path
           d="  M856.7158,325.0416 C819.8323,325.0416 789.9319,350.8805 789.9319,382.7527 C789.9319,414.6259 819.8323,440.4647 856.7158,440.4647 C893.5992,440.4647 923.4987,414.6259 923.4987,382.7527 C923.4987,350.8805 893.5992,325.0416 856.7158,325.0416 Z Z M856.1370,414.2132 C842.3851,414.2132 831.2376,400.4755 831.2376,383.5250 C831.2376,366.5756 842.3851,352.8349 856.1370,352.8349 C869.8879,352.8349 881.0344,366.5756 881.0344,383.5250 C881.0344,400.4755 869.8879,414.2132 856.1370,414.2132 Z"
           style="fill-rule: evenodd; fill: #e30016; "
           id="path4" />
      </g>
      <path
         d="  M339.7475,325.9169 L381.9255,325.9169 L381.9255,410.0497 L438.5707,410.0497 L438.5707,437.0930 L339.7159,437.0930 L339.7475,325.9169 Z"
         style="fill-rule: evenodd; fill: #e30016; "
         id="path5" />
      <path
         d="  M406.1187,325.9169 L452.6762,325.9169 L475.5968,363.8672 L497.9406,325.9169 L544.5002,325.9169 L496.5141,395.9289 L496.5141,437.0930 L454.1048,437.0930 L454.1048,396.2855 L406.1187,325.9169 Z"
         style="fill-rule: evenodd; fill: #e30016; "
         id="path6" />
      <path
         d="  M549.0743,325.9169 L663.7444,325.9169 L663.7444,358.5136 L627.0434,358.5136 L627.0434,437.0930 L585.7030,437.0930 L585.7030,358.5136 L549.0019,358.5136 L549.0743,325.9169 Z"
         style="fill-rule: evenodd; fill: #e30016; "
         id="path7" />
      <g
         id="Layer1005">
        <path
           d="  M787.0849,424.0166 L787.0849,403.7454 C787.0849,388.4364 768.2962,385.4774 768.2962,385.4774 C793.4931,376.6042 785.6074,350.8836 785.6074,350.8836 C785.1142,325.1924 741.6187,325.9169 741.6187,325.9169 L673.4460,325.9169 L673.4460,437.0930 L713.4607,437.0930 L713.4607,399.8030 L733.2092,399.8030 C747.0885,398.7270 747.5633,408.7057 747.5633,408.7057 C747.2852,426.1840 751.5057,437.0930 751.5057,437.0930 L793.4931,437.0930 L793.4931,431.9024 C786.0710,429.4080 787.0849,424.0166 787.0849,424.0166 Z Z M737.1811,373.6187 L713.4607,373.6187 L713.4607,354.3338 L737.1811,354.3338 C737.1811,354.3338 748.5477,353.3474 748.5477,362.7433 C748.5477,362.7433 751.9989,373.6187 737.1811,373.6187 Z"
           style="fill-rule: evenodd; fill: #e30016; "
           id="path8" />
      </g>
      <path
         d="  M928.0269,325.9169 L928.0269,437.0930 L967.4038,437.0930 L967.4017,381.2079 L1012.1842,437.0930 L1050.7836,437.0930 L1050.7836,325.9169 L1010.6394,325.9169 L1010.6364,385.0678 L965.8611,325.9169 L928.0269,325.9169 Z"
         style="fill-rule: evenodd; fill: #e30016; "
         id="path9" />
      <g
         id="Layer1006">
        <path
           d="  M240.4913,451.4736 C240.1866,453.0734 239.5477,454.6273 238.5736,456.1293 C237.5220,457.6761 235.9334,459.3400 233.8130,461.1232 C232.1714,462.5131 229.5496,464.0436 225.9466,465.7147 C222.3588,467.3715 219.2622,468.5464 216.6608,469.2321 C219.9041,470.0483 222.2549,471.6073 223.7130,473.9102 C225.1752,476.1988 225.6093,478.9021 225.0173,482.0211 C223.9362,487.7080 220.7224,492.7997 215.3748,497.2924 C209.6910,502.0682 203.4305,504.4557 196.5923,504.4557 C194.8631,504.4557 193.2307,504.2519 191.6931,503.8453 C190.1697,503.4398 188.7432,502.7795 187.4134,501.8655 C187.1730,503.1290 186.7746,504.1887 186.2182,505.0457 C185.7372,505.7335 185.1809,506.0779 184.5481,506.0799 C184.3250,506.0799 184.0988,506.0493 183.8685,505.9933 C182.4796,505.4736 181.9549,504.3222 182.2921,502.5390 C182.9157,499.2671 185.9482,493.5742 191.3945,485.4540 C195.6426,479.1354 200.9412,471.9793 207.2934,463.9875 C212.8957,456.9648 216.7841,452.3876 218.9616,450.2509 C218.1393,450.3650 215.8802,451.1995 212.1865,452.7575 C210.5653,453.4474 209.4424,453.7918 208.8086,453.7918 C208.1198,453.7918 207.7112,453.5034 207.5828,452.9257 C207.5115,452.7035 207.5003,452.4722 207.5461,452.2317 C207.8396,450.6870 210.5857,448.7907 215.7885,446.5449 C221.6649,444.0729 226.3603,442.8369 229.8706,442.8359 C233.3809,442.8359 236.1688,443.6144 238.2322,445.1754 C240.2426,446.7202 240.9936,448.8192 240.4913,451.4736 Z Z M235.6135,451.6418 C235.8754,450.2651 235.6186,449.1789 234.8452,448.3770 C234.0850,447.5628 232.9601,447.1553 231.4734,447.1553 C228.8741,447.1553 226.3776,447.7310 223.9820,448.8824 C224.3325,449.1066 224.4630,449.4510 224.3774,449.9146 C224.2449,450.6024 223.4165,451.7834 221.8921,453.4545 C216.5762,459.3237 213.0017,463.4679 211.1675,465.8828 C214.6779,465.8828 219.3763,464.3248 225.2649,461.2058 C231.5855,457.8778 235.0347,454.6905 235.6135,451.6418 Z Z M220.4330,479.7672 C220.9547,477.0150 220.2139,474.8853 218.2106,473.3834 C216.6455,472.2320 214.7390,471.6562 212.4922,471.6542 C211.6220,471.6542 210.8659,471.6838 210.2229,471.7398 C209.5229,471.7969 208.8800,471.8529 208.2940,471.9089 C207.4371,471.9089 206.9266,471.7123 206.7636,471.3179 C204.3109,474.8293 201.8674,478.3070 199.4301,481.7470 C196.2448,486.4648 192.9322,491.8164 189.4921,497.7998 C189.3729,498.4316 190.0750,498.9512 191.5963,499.3588 C193.1339,499.7654 195.0822,499.9692 197.4431,499.9692 C202.9628,499.9692 208.1004,497.6082 212.8610,492.8904 C217.0317,488.7483 219.5556,484.3729 220.4330,479.7672 Z"
           style="fill-rule: evenodd; fill: #1b1918; "
           id="path10" />
        <path
           d="  M262.5529,480.9675 C262.1320,482.3014 260.4497,483.8604 257.5131,485.6436 C254.5907,487.4288 252.1533,488.3183 250.2010,488.3183 C248.8661,488.3183 247.8879,488.0025 247.2643,487.3707 C246.6387,486.7389 246.4644,485.7016 246.7396,484.2537 C246.8486,483.6780 246.9627,483.2235 247.0840,482.8842 C244.1402,485.3572 241.1811,488.2287 238.1996,491.5006 C235.0052,495.0129 233.1282,497.4564 232.5719,498.8320 C232.0257,500.2219 231.2921,501.2052 230.3689,501.7809 C229.4477,502.4127 228.6163,502.7285 227.8714,502.7285 C226.7200,502.7285 226.2553,502.1528 226.4724,501.0014 C226.5284,500.7069 226.6853,500.3279 226.9411,499.8642 C228.9719,496.1287 230.9324,492.7926 232.8246,489.8580 C235.6838,485.3786 238.2577,481.8102 240.5463,479.1558 C243.4911,475.7698 245.7991,474.0783 247.4722,474.0783 C248.3852,474.0783 248.7907,474.3382 248.6939,474.8578 C248.6827,474.9139 248.6674,474.9984 248.6440,475.1105 C248.4901,475.6302 247.7565,476.6064 246.4451,478.0380 C243.1824,481.6064 241.2494,483.9093 240.6462,484.9486 C244.7251,481.6625 247.8023,479.2475 249.8800,477.7007 C253.7133,474.8232 256.3463,473.3834 257.7800,473.3834 C258.9865,473.3834 259.5530,473.7278 259.4797,474.4156 C259.4695,474.4716 259.4583,474.5277 259.4481,474.5837 C259.3268,475.2155 258.7898,475.9410 257.8351,476.7531 C254.4174,479.2812 252.5212,481.0939 252.1462,482.1893 C252.1340,482.2453 252.1238,482.3014 252.1126,482.3574 C252.0035,482.9352 252.4621,483.2215 253.4871,483.2215 C254.6386,483.2215 255.9112,482.8771 257.3062,482.1893 C258.6920,481.5575 260.0921,480.8697 261.5115,480.1249 C262.3124,480.1249 262.6700,480.3500 262.5865,480.7994 C262.5743,480.8555 262.5630,480.9115 262.5529,480.9675 Z"
           style="fill-rule: evenodd; fill: #1b1918; "
           id="path11" />
        <path
           d="  M292.8915,458.3628 C292.5950,459.9208 291.5597,461.4167 289.7847,462.8504 C288.2246,464.1139 286.9519,464.7456 285.9707,464.7456 C285.8566,464.7456 285.7445,464.7456 285.6344,464.7456 C284.5370,464.7456 284.1029,464.1424 284.3332,462.9349 C284.3760,462.7097 284.4524,462.4570 284.5635,462.1758 C285.1107,460.8410 286.1429,459.5133 287.6581,458.1937 C289.1621,456.9302 290.3981,456.2984 291.3661,456.2984 C292.6439,456.2984 293.1534,456.9862 292.8915,458.3628 Z Z M280.8667,474.4156 C280.8911,474.5837 280.8840,474.7590 280.8514,474.9424 C280.6792,475.8544 279.9007,477.0639 278.5200,478.5648 C273.2948,484.2537 268.7818,490.8963 264.9800,498.4947 C264.6132,499.5341 264.1557,500.2789 263.6075,500.7273 C263.1214,501.1349 262.6823,501.3387 262.2910,501.3387 C262.1636,501.3387 262.0444,501.3387 261.9333,501.3387 C261.1630,501.1695 260.9225,500.3350 261.2088,498.8320 C261.8854,495.2636 264.6570,490.0618 269.5246,483.2215 C274.3229,476.4372 277.7843,473.0441 279.9068,473.0441 C280.5722,473.1592 280.8932,473.6147 280.8667,474.4156 Z"
           style="fill-rule: evenodd; fill: #1b1918; "
           id="path12" />
        <path
           d="  M308.0690,475.9746 C304.5393,480.0617 301.4202,483.9164 298.7088,487.5388 C295.7232,491.5006 293.9522,494.9477 293.3938,497.8844 C293.2165,498.8106 293.2573,499.9366 293.5110,501.2541 C293.7240,502.5747 293.8361,503.3552 293.8463,503.5926 C293.6414,504.6737 293.1320,505.2494 292.3178,505.3198 C292.2618,505.3198 292.2057,505.3198 292.1497,505.3198 C291.2764,505.3198 290.4674,504.7440 289.7164,503.5926 C288.7392,502.0896 288.4356,500.3625 288.8075,498.4112 C289.2130,496.2744 290.1382,493.8055 291.5842,490.9952 C292.5899,489.0296 293.8075,487.0141 295.2402,484.9486 C292.2373,486.7899 289.4026,489.2894 286.7359,492.4482 C282.1975,497.8569 279.2975,500.5592 278.0340,500.5592 C277.1067,500.5592 276.7470,500.0120 276.9539,498.9166 C277.6427,496.5556 280.5651,491.9306 285.7231,485.0332 C290.8413,478.1236 294.0042,474.6683 295.2137,474.6683 C296.4772,474.6683 297.0815,475.1034 297.0305,475.9746 C296.8675,476.8305 296.0564,478.2153 294.5972,480.1249 C293.4784,481.5015 292.3810,482.8771 291.3070,484.2537 C291.7910,483.8461 293.7943,482.2382 297.3219,479.4299 C301.1960,476.2569 304.1164,474.6703 306.0840,474.6683 C306.8839,474.6683 307.4372,474.7875 307.7429,475.0260 C307.9915,475.1951 308.1005,475.5110 308.0690,475.9746 Z"
           style="fill-rule: evenodd; fill: #1b1918; "
           id="path13" />
        <path
           d="  M337.6006,483.5577 C336.9352,485.8046 334.7903,488.7412 331.1678,492.3636 C326.8495,496.6769 322.0980,500.0680 316.9105,502.5390 C312.9151,508.7037 308.7924,514.0268 304.5423,518.5082 C299.3629,523.9698 295.3401,526.7017 292.4737,526.7037 C289.7082,526.7037 288.6628,524.9195 289.3404,521.3511 C289.9416,518.1923 292.1497,514.8858 295.9647,511.4295 C300.2759,507.5238 305.9536,504.1327 313.0028,501.2541 C314.1929,499.8785 315.0193,498.8463 315.4880,498.1585 C316.2818,497.0070 316.7607,495.9962 316.9278,495.1230 C313.8169,497.8915 311.1951,499.2742 309.0604,499.2742 C306.5894,499.2742 305.6377,497.7794 306.2063,494.7867 C306.2939,494.3231 306.3877,493.9807 306.4865,493.7545 C307.5146,490.1881 310.9740,485.4683 316.8657,479.5970 C322.7003,473.7278 327.0207,470.7932 329.8299,470.7932 C331.3890,470.7932 332.5363,471.2548 333.2740,472.1830 C333.9598,473.1521 334.1554,474.4156 333.8599,475.9746 C333.6093,477.2942 332.7686,478.6789 331.3451,480.1249 C332.1430,480.1249 332.5017,480.3500 332.4151,480.7994 C330.0286,483.6780 327.8552,486.3548 325.8988,488.8258 C323.7111,491.5362 322.2173,494.0704 321.4194,496.4313 C324.7137,494.2385 327.7207,491.7604 330.4372,488.9929 C332.6453,486.7614 334.8606,484.4921 337.0829,482.1893 C337.6006,482.1893 337.7931,482.5337 337.6658,483.2215 C337.6444,483.3356 337.6220,483.4457 337.6006,483.5577 Z Z M328.2699,478.1236 C328.3789,477.8414 328.4543,477.5836 328.5012,477.3431 C328.5542,477.0639 328.5807,476.7765 328.5817,476.4800 C328.4982,476.0307 328.1965,475.8075 327.6769,475.8055 C326.5815,475.8055 323.6611,478.1644 318.9168,482.8842 C314.0910,487.6601 311.5426,490.7628 311.2705,492.1955 C311.0830,493.1788 311.0657,493.8951 311.2196,494.3445 C311.2899,494.8642 311.6404,495.1230 312.2732,495.1230 C313.2545,495.1230 314.5261,494.4912 316.0882,493.2277 C318.0528,491.6830 320.2507,489.3516 322.6829,486.2335 C321.7322,486.0644 321.2890,485.8046 321.3562,485.4540 C323.0273,483.9093 324.5334,482.4776 325.8815,481.1571 C327.1603,479.8915 327.9561,478.8807 328.2699,478.1236 Z Z M310.0070,506.6047 C308.0547,506.6047 304.9937,508.3328 300.8272,511.7871 C296.5934,515.2974 294.2905,518.0303 293.9186,519.9826 C293.7566,520.8386 294.0816,521.3868 294.8907,521.6252 C295.1210,521.6813 295.3472,521.7098 295.5714,521.7098 C297.1864,521.7098 299.2997,520.1212 301.9114,516.9492 C304.5729,513.5071 307.2701,510.0600 310.0070,506.6047 Z"
           style="fill-rule: evenodd; fill: #1b1918; "
           id="path14" />
        <path
           d="  M367.4888,475.9746 C367.1057,477.9840 365.6842,479.8518 363.2214,481.5789 C360.7606,483.3611 357.9523,484.2537 354.7905,484.2537 C354.2718,484.2537 353.7450,484.1406 353.2111,483.9164 C352.6812,483.6780 352.4703,483.2724 352.5814,482.6947 C352.6547,482.3014 354.2188,481.6136 357.2717,480.6292 C360.3357,479.6480 362.0261,478.3284 362.3420,476.6685 C362.5947,475.3347 361.8295,474.6703 360.0463,474.6683 C359.7651,474.6683 359.5409,474.6683 359.3728,474.6683 C356.8539,474.9088 354.7701,475.7138 353.1184,477.0904 C351.4809,478.4680 350.4701,480.1677 350.0859,482.1893 C349.8455,483.4528 349.9341,485.0892 350.3539,487.0966 C351.3280,491.6483 351.6949,494.5544 351.4564,495.8189 C351.0753,497.8283 350.1644,499.4363 348.7287,500.6437 C347.2247,501.9072 345.1511,502.5390 342.5120,502.5390 C339.8576,502.5390 338.0499,501.7391 337.0901,500.1383 C336.0772,498.5233 335.8011,496.5088 336.2576,494.0918 C336.5755,492.4207 337.3438,490.8128 338.5655,489.2680 C339.7730,487.7080 340.9122,486.8439 341.9862,486.6758 C342.0412,486.6758 342.0973,486.6758 342.1553,486.6758 C342.6190,486.6758 342.9287,486.8439 343.0907,487.1812 C343.0806,487.2372 343.0683,487.3024 343.0541,487.3707 C342.9807,487.7650 342.5344,488.5924 341.7182,489.8580 C340.8877,491.1918 340.3986,492.2587 340.2458,493.0596 C340.2244,493.1717 340.2030,493.2838 340.1826,493.3958 C339.9320,494.7174 340.1347,495.8954 340.7950,496.9347 C341.4675,497.9761 342.2959,498.4947 343.2803,498.4947 C344.6548,498.4947 345.7482,498.1789 346.5573,497.5471 C347.2980,496.9714 347.7668,496.1644 347.9655,495.1230 C348.1744,494.0276 347.8034,492.0202 346.8558,489.0989 C345.9235,486.1632 345.5954,483.9725 345.8715,482.5266 C346.4717,479.3647 348.4974,476.5778 351.9476,474.1629 C355.3295,471.8040 358.7206,470.6220 362.1209,470.6220 C364.3677,470.6220 365.9379,471.1152 366.8336,472.0985 C367.5866,473.0115 367.8393,474.1272 367.5887,475.4478 C367.5530,475.6302 367.5204,475.8055 367.4888,475.9746 Z"
           style="fill-rule: evenodd; fill: #1b1918; "
           id="path15" />
        <path
           d="  M459.7988,444.1218 C459.3056,446.7202 456.4637,451.2056 451.2782,457.5833 C444.0752,466.4453 439.1801,472.8352 436.5960,476.7531 C430.9591,485.2085 427.4640,493.0046 426.1067,500.1383 C425.7471,502.0336 425.3283,503.3552 424.8483,504.1001 C424.2869,504.9122 423.4309,505.3198 422.2795,505.3198 C421.2524,505.3198 420.6308,504.8276 420.4097,503.8453 C420.1234,502.9181 420.1254,501.6841 420.4199,500.1383 C421.2738,495.6447 423.6449,490.1453 427.5364,483.6423 C430.4730,478.7564 434.4745,472.9483 439.5469,466.2201 C443.2875,461.3902 447.0607,456.5318 450.8696,451.6418 C447.3756,454.5774 442.3236,459.8088 435.7115,467.3369 C430.5739,473.1521 425.4750,478.9653 420.4097,484.7805 C415.4280,490.0750 412.1653,492.7223 410.6205,492.7223 C410.5645,492.7223 410.5013,492.7223 410.4310,492.7223 C409.5751,492.7223 408.9688,492.4350 408.6152,491.8582 C408.2494,491.3396 408.1567,490.6161 408.3319,489.6878 C409.2184,485.0271 411.7057,479.5074 415.7969,473.1307 C419.8900,466.7397 423.9302,460.4701 427.9256,454.3186 C420.6166,460.9897 413.5327,469.0426 406.6700,478.4802 C402.1081,485.2645 397.5676,492.0478 393.0495,498.8320 C389.2233,504.4771 386.3916,507.2996 384.5514,507.2996 C383.2868,507.2996 382.7600,506.7534 382.9679,505.6560 C383.3836,503.4663 387.5869,497.0835 395.5806,486.5066 C403.5754,475.9196 411.3511,466.4799 418.9088,458.1937 C427.8308,448.4188 433.5268,443.5308 435.9999,443.5308 C437.7270,443.5308 438.4393,444.3307 438.1336,445.9335 C438.0358,446.4532 437.7515,447.2042 437.2848,448.1875 C430.5178,458.0765 425.2457,465.9816 421.4643,471.9089 C417.3610,478.3539 415.0143,483.1298 414.4243,486.2335 C415.7571,484.6888 418.2872,481.8174 422.0227,477.6172 C424.7362,474.5695 427.4426,471.5228 430.1439,468.4740 C433.3638,464.8373 435.9010,461.9302 437.7617,459.7527 C443.4118,453.3057 448.0776,448.5594 451.7612,445.5117 C454.7712,443.0407 456.9936,441.8057 458.4273,441.8037 C459.6337,441.8037 460.0902,442.5760 459.7988,444.1218 Z"
           style="fill-rule: evenodd; fill: #1b1918; "
           id="path16" />
        <path
           d="  M469.6012,479.5970 C469.3241,480.4550 468.0228,482.6101 465.6965,486.0644 C463.3560,489.5768 461.9804,492.4278 461.5646,494.6176 C461.2050,496.5139 461.6187,497.8069 462.8068,498.4947 C463.9969,499.1836 464.4819,500.1027 464.2639,501.2541 C464.0550,502.3495 463.1512,502.8977 461.5504,502.8977 C460.1595,502.8977 459.0437,502.4055 458.2061,501.4232 C457.1709,500.2147 456.8499,498.5813 457.2432,496.5139 C457.3747,495.8271 457.6885,494.9059 458.1888,493.7545 C456.2864,496.2275 454.4472,498.0393 452.6691,499.1907 C450.8798,500.3982 449.2403,501.0014 447.7526,501.0014 C445.3376,501.0014 444.3014,499.1622 444.6509,495.4817 C445.5374,490.8199 448.2611,485.8677 452.8250,480.6292 C457.8363,474.8721 462.5255,471.9935 466.8948,471.9915 C468.1584,471.9915 469.1152,472.2809 469.7643,472.8566 C470.3879,473.4883 470.5967,474.3524 470.3879,475.4478 C470.3440,475.6883 470.1739,476.0938 469.8825,476.6685 C469.6155,477.1892 469.4504,477.6172 469.3852,477.9545 C469.3750,478.0115 469.3648,478.0676 469.3536,478.1236 C469.4239,478.6433 469.5054,479.1354 469.6012,479.5970 Z Z M466.4618,478.8196 C466.3507,477.2585 465.6344,476.4800 464.3148,476.4800 C461.8428,476.4800 458.9490,478.5526 455.6333,482.6947 C452.2523,486.8948 450.2817,490.4612 449.7253,493.3958 C449.5816,494.1550 449.5551,494.7317 449.6499,495.1230 C449.6723,495.5866 449.9169,495.8189 450.3795,495.8189 C451.9945,495.8189 454.1802,494.1478 456.9375,490.8056 C460.1035,486.8439 463.2806,482.8496 466.4618,478.8196 Z"
           style="fill-rule: evenodd; fill: #1b1918; "
           id="path17" />
        <path
           d="  M503.5928,483.5577 C502.9254,485.8046 500.7805,488.7412 497.1581,492.3636 C492.8417,496.6769 488.0893,500.0680 482.9007,502.5390 C478.9054,508.7037 474.7826,514.0268 470.5336,518.5082 C465.3542,523.9698 461.3303,526.7017 458.4650,526.7037 C455.6985,526.7037 454.6561,524.9195 455.3316,521.3511 C455.9318,518.1923 458.1399,514.8858 461.9559,511.4295 C466.2661,507.5238 471.9448,504.1327 478.9940,501.2541 C480.1821,499.8785 481.0106,498.8463 481.4793,498.1585 C482.2741,497.0070 482.7509,495.9962 482.9201,495.1230 C479.8082,497.8915 477.1854,499.2742 475.0517,499.2742 C472.5796,499.2742 471.6290,497.7794 472.1975,494.7867 C472.2852,494.3231 472.3779,493.9807 472.4767,493.7545 C473.5049,490.1881 476.9663,485.4683 482.8569,479.5970 C488.6915,473.7278 493.0119,470.7932 495.8212,470.7932 C497.3792,470.7932 498.5276,471.2548 499.2643,472.1830 C499.9511,473.1521 500.1457,474.4156 499.8502,475.9746 C499.5995,477.2942 498.7609,478.6789 497.3354,480.1249 C498.1342,480.1249 498.4919,480.3500 498.4083,480.7994 C496.0189,483.6780 493.8475,486.3548 491.8890,488.8258 C489.7023,491.5362 488.2106,494.0704 487.4096,496.4313 C490.7060,494.2385 493.7109,491.7604 496.4285,488.9929 C498.6366,486.7614 500.8518,484.4921 503.0732,482.1893 C503.5928,482.1893 503.7864,482.5337 503.6560,483.2215 C503.6346,483.3356 503.6142,483.4457 503.5928,483.5577 Z Z M494.2601,478.1236 C494.3692,477.8414 494.4466,477.5836 494.4925,477.3431 C494.5444,477.0639 494.5709,476.7765 494.5730,476.4800 C494.4884,476.0307 494.1868,475.8075 493.6671,475.8055 C492.5738,475.8055 489.6514,478.1644 484.9071,482.8842 C480.0813,487.6601 477.5328,490.7628 477.2608,492.1955 C477.0733,493.1788 477.0560,493.8951 477.2098,494.3445 C477.2801,494.8642 477.6317,495.1230 478.2634,495.1230 C479.2447,495.1230 480.5184,494.4912 482.0794,493.2277 C484.0430,491.6830 486.2409,489.3516 488.6732,486.2335 C487.7225,486.0644 487.2823,485.8046 487.3465,485.4540 C489.0176,483.9093 490.5256,482.4776 491.8717,481.1571 C493.1515,479.8915 493.9463,478.8807 494.2601,478.1236 Z Z M475.9973,506.6047 C474.0459,506.6047 470.9850,508.3328 466.8174,511.7871 C462.5846,515.2974 460.2828,518.0303 459.9109,519.9826 C459.7478,520.8386 460.0719,521.3868 460.8830,521.6252 C461.1112,521.6813 461.3374,521.7098 461.5626,521.7098 C463.1777,521.7098 465.2910,520.1212 467.9026,516.9492 C470.5631,513.5071 473.2634,510.0600 475.9973,506.6047 Z"
           style="fill-rule: evenodd; fill: #1b1918; "
           id="path18" />
        <path
           d="  M533.7287,458.3628 C533.4312,459.9208 532.3959,461.4167 530.6219,462.8504 C529.0608,464.1139 527.7881,464.7456 526.8079,464.7456 C526.6927,464.7456 526.5807,464.7456 526.4706,464.7456 C525.3732,464.7456 524.9401,464.1424 525.1694,462.9349 C525.2132,462.7097 525.2886,462.4570 525.3997,462.1758 C525.9469,460.8410 526.9791,459.5133 528.4922,458.1937 C529.9962,456.9302 531.2343,456.2984 532.2023,456.2984 C533.4811,456.2984 533.9875,456.9862 533.7287,458.3628 Z Z M521.7029,474.4156 C521.7273,474.5837 521.7202,474.7590 521.6876,474.9424 C521.5154,475.8544 520.7379,477.0639 519.3562,478.5648 C514.1310,484.2537 509.6180,490.8963 505.8152,498.4947 C505.4504,499.5341 504.9919,500.2789 504.4447,500.7273 C503.9576,501.1349 503.5195,501.3387 503.1261,501.3387 C502.9998,501.3387 502.8806,501.3387 502.7685,501.3387 C501.9992,501.1695 501.7567,500.3350 502.0450,498.8320 C502.7206,495.2636 505.4922,490.0618 510.3608,483.2215 C515.1591,476.4372 518.6205,473.0441 520.7410,473.0441 C521.4084,473.1592 521.7273,473.6147 521.7029,474.4156 Z"
           style="fill-rule: evenodd; fill: #1b1918; "
           id="path19" />
        <path
           d="  M543.6310,488.3183 C541.3475,491.5362 538.6574,494.3526 535.5587,496.7676 C531.6469,499.7593 528.0836,501.2541 524.8678,501.2541 C523.1946,501.2541 521.9546,500.6519 521.1455,499.4434 C520.3497,498.2349 520.1316,496.6840 520.4923,494.7867 C521.3890,490.0689 524.3206,485.0628 529.2870,479.7672 C534.2127,474.4716 538.6554,471.8244 542.6151,471.8244 C544.4543,471.8244 545.1054,473.2356 544.5705,476.0582 C544.1119,478.4752 543.0573,480.5457 541.4086,482.2738 C539.6937,484.0570 537.9156,484.9486 536.0764,484.9486 C535.6698,484.9486 535.5302,484.6042 535.6627,483.9164 C535.7819,483.2847 536.6643,482.1047 538.3140,480.3765 C539.9770,478.6494 540.8451,477.5836 540.9246,477.1750 C540.9776,476.8937 540.7993,476.7551 540.3947,476.7531 C538.4404,476.7531 535.4732,478.8807 531.4900,483.1369 C527.4651,487.3911 525.1857,490.9320 524.6507,493.7545 C524.2462,495.8760 524.7323,496.9347 526.1089,496.9347 C526.2913,496.9347 526.4716,496.9082 526.6530,496.8501 C529.4470,496.3325 532.1799,494.9569 534.8516,492.7223 C537.4591,490.5315 540.1329,488.2847 542.8749,485.9808 C543.9000,485.9808 544.3351,486.3803 544.1843,487.1812 C544.1170,487.5337 543.9306,487.9128 543.6310,488.3183 Z"
           style="fill-rule: evenodd; fill: #1b1918; "
           id="path20" />
        <path
           d="  M645.6812,444.2257 C645.6608,444.3399 645.6435,444.4244 645.6323,444.4805 C645.3501,445.9682 643.7707,447.0004 640.8952,447.5761 C638.5750,448.0397 634.7661,448.2710 629.4726,448.2710 C628.9509,448.2710 628.5769,448.2710 628.3548,448.2710 C627.8911,448.2710 627.5753,448.2710 627.4061,448.2710 C626.3107,448.2710 625.2439,448.2710 624.2045,448.2710 C623.1081,448.2710 622.0178,448.2435 620.9326,448.1875 C620.5403,448.1875 620.2245,448.1875 619.9850,448.1875 C620.1134,448.4677 620.1063,448.9874 619.9626,449.7455 C619.8536,450.3232 617.2389,453.9161 612.1206,460.5322 C605.1662,469.5623 600.0102,476.4097 596.6528,481.0725 C590.4004,489.8091 586.2226,496.5342 584.1185,501.2541 C583.1281,503.7271 581.9736,504.9611 580.6540,504.9611 C580.5837,504.9611 580.5185,504.9611 580.4645,504.9611 C579.7186,504.9611 579.2142,504.4414 578.9493,503.4031 C578.6935,502.3800 578.7373,500.9739 579.0736,499.1907 C579.4353,497.2924 582.0846,492.8904 587.0205,485.9808 C589.9847,481.8377 594.9531,475.1961 601.9300,466.0519 C608.8926,456.9648 613.0122,451.4746 614.2859,449.5773 C610.7104,449.9146 607.3916,450.4547 604.3317,451.1995 C601.2391,452.0157 598.1568,452.7942 595.0795,453.5370 C594.5710,453.4830 594.1349,453.3353 593.7742,453.0948 C593.3523,452.8716 593.1801,452.5558 593.2596,452.1472 C593.6723,449.9707 597.3844,448.0183 604.3999,446.2912 C610.0664,444.9156 616.6245,443.8487 624.0731,443.0886 C631.4504,442.4018 637.2676,442.0584 641.5239,442.0564 C643.0808,442.0564 644.1935,442.2602 644.8620,442.6667 C645.5274,443.0763 645.8015,443.5940 645.6812,444.2257 Z"
           style="fill-rule: evenodd; fill: #1b1918; "
           id="path21" />
        <path
           d="  M647.8618,484.7805 C646.9977,487.2535 644.7937,490.2442 641.2477,493.7545 C637.0740,497.8283 633.4639,499.8642 630.4182,499.8642 C628.7460,499.8642 628.1999,498.3409 628.7787,495.2921 C629.1496,493.3418 630.3428,490.8708 632.3583,487.8761 C634.0467,485.3491 636.2405,482.5612 638.9398,479.5145 C631.3434,484.6837 625.3937,490.8963 621.0926,498.1585 C619.5835,500.6315 618.2252,501.8655 617.0188,501.8655 C615.7532,501.8655 615.2641,501.1135 615.5505,499.6115 C615.5831,499.4434 615.6147,499.2742 615.6462,499.1061 C615.8990,497.7723 616.7223,495.9881 618.1162,493.7545 C619.1922,492.0834 620.6208,490.0404 622.3989,487.6234 C627.6384,480.6027 634.5664,470.4488 643.1878,457.1615 C647.7507,450.1388 650.8688,446.6285 652.5409,446.6285 C653.8594,446.6285 654.4402,447.4925 654.2803,449.2197 C654.2701,449.2757 654.2589,449.3328 654.2487,449.3878 C654.0418,450.4832 652.8272,452.3245 650.6089,454.9075 C646.5423,459.6834 643.7075,463.1102 642.1047,465.1879 C637.8607,470.5965 634.1802,476.0307 631.0642,481.4943 C634.3575,478.7279 637.3166,476.6288 639.9496,475.1951 C642.1872,473.9866 643.9368,473.3834 645.2023,473.3834 C646.4668,473.3834 647.0558,473.9031 646.9723,474.9424 C646.9600,474.9984 646.9488,475.0545 646.9386,475.1105 C646.8510,475.5742 646.6431,476.0673 646.3222,476.5850 C645.8504,477.2167 643.9408,479.5420 640.5935,483.5577 C636.3475,488.6852 634.0936,491.9357 633.8317,493.3123 C633.6901,494.0582 633.9917,494.4280 634.7376,494.4280 C636.4066,494.4280 638.8012,492.5888 641.9151,488.9104 C645.0291,485.2309 646.9315,483.3917 647.6213,483.3896 C647.9586,483.3896 648.0595,483.7340 647.9301,484.4218 C647.9066,484.5339 647.8863,484.6531 647.8618,484.7805 Z"
           style="fill-rule: evenodd; fill: #1b1918; "
           id="path22" />
        <path
           d="  M679.9785,458.3628 C679.6820,459.9208 678.6467,461.4167 676.8717,462.8504 C675.3117,464.1139 674.0390,464.7456 673.0557,464.7456 C672.9436,464.7456 672.8315,464.7456 672.7194,464.7456 C671.6240,464.7456 671.1900,464.1424 671.4203,462.9349 C671.4641,462.7097 671.5374,462.4570 671.6485,462.1758 C672.1977,460.8410 673.2299,459.5133 674.7431,458.1937 C676.2491,456.9302 677.4841,456.2984 678.4531,456.2984 C679.7309,456.2984 680.2384,456.9862 679.9785,458.3628 Z Z M667.9537,474.4156 C667.9782,474.5837 667.9711,474.7590 667.9374,474.9424 C667.7642,475.8544 666.9878,477.0639 665.6071,478.5648 C660.3818,484.2537 655.8688,490.8963 652.0650,498.4947 C651.7002,499.5341 651.2427,500.2789 650.6945,500.7273 C650.2085,501.1349 649.7693,501.3387 649.3760,501.3387 C649.2496,501.3387 649.1304,501.3387 649.0183,501.3387 C648.2490,501.1695 648.0075,500.3350 648.2939,498.8320 C648.9725,495.2636 651.7441,490.0618 656.6117,483.2215 C661.4100,476.4372 664.8714,473.0441 666.9918,473.0441 C667.6593,473.1592 667.9782,473.6147 667.9537,474.4156 Z"
           style="fill-rule: evenodd; fill: #1b1918; "
           id="path23" />
        <path
           d="  M695.1560,475.9746 C691.6263,480.0617 688.5052,483.9164 685.7958,487.5388 C682.8092,491.5006 681.0372,494.9477 680.4809,497.8844 C680.3036,498.8106 680.3433,499.9366 680.5981,501.2541 C680.8110,502.5747 680.9211,503.3552 680.9333,503.5926 C680.7285,504.6737 680.2190,505.2494 679.4049,505.3198 C679.3468,505.3198 679.2907,505.3198 679.2357,505.3198 C678.3635,505.3198 677.5544,504.7440 676.8034,503.5926 C675.8252,502.0896 675.5226,500.3625 675.8925,498.4112 C676.2980,496.2744 677.2233,493.8055 678.6712,490.9952 C679.6769,489.0296 680.8925,487.0141 682.3272,484.9486 C679.3223,486.7899 676.4876,489.2894 673.8230,492.4482 C669.2835,497.8569 666.3845,500.5592 665.1190,500.5592 C664.1917,500.5592 663.8320,500.0120 664.0409,498.9166 C664.7287,496.5556 667.6501,491.9306 672.8101,485.0332 C677.9263,478.1236 681.0912,474.6683 682.3008,474.6683 C683.5632,474.6683 684.1685,475.1034 684.1155,475.9746 C683.9545,476.8305 683.1434,478.2153 681.6843,480.1249 C680.5665,481.5015 679.4680,482.8771 678.3940,484.2537 C678.8760,483.8461 680.8803,482.2382 684.4090,479.4299 C688.2821,476.2569 691.2034,474.6703 693.1711,474.6683 C693.9709,474.6683 694.5222,474.7875 694.8299,475.0260 C695.0786,475.1951 695.1855,475.5110 695.1560,475.9746 Z"
           style="fill-rule: evenodd; fill: #1b1918; "
           id="path24" />
        <path
           d="  M724.6876,483.5577 C724.0202,485.8046 721.8773,488.7412 718.2549,492.3636 C713.9365,496.6769 709.1851,500.0680 703.9955,502.5390 C700.0022,508.7037 695.8784,514.0268 691.6294,518.5082 C686.4479,523.9698 682.4271,526.7017 679.5587,526.7037 C676.7933,526.7037 675.7498,524.9195 676.4254,521.3511 C677.0266,518.1923 679.2357,514.8858 683.0517,511.4295 C687.3630,507.5238 693.0386,504.1327 700.0898,501.2541 C701.2779,499.8785 702.1064,498.8463 702.5751,498.1585 C703.3688,497.0070 703.8478,495.9962 704.0139,495.1230 C700.9040,497.8915 698.2822,499.2742 696.1475,499.2742 C693.6744,499.2742 692.7227,497.7794 693.2913,494.7867 C693.3810,494.3231 693.4747,493.9807 693.5725,493.7545 C694.6017,490.1881 698.0611,485.4683 703.9517,479.5970 C709.7853,473.7278 714.1067,470.7932 716.9170,470.7932 C718.4760,470.7932 719.6234,471.2548 720.3611,472.1830 C721.0469,473.1521 721.2415,474.4156 720.9470,475.9746 C720.6963,477.2942 719.8557,478.6789 718.4302,480.1249 C719.2300,480.1249 719.5887,480.3500 719.5021,480.7994 C717.1157,483.6780 714.9422,486.3548 712.9848,488.8258 C710.7981,491.5362 709.3043,494.0704 708.5054,496.4313 C711.8008,494.2385 714.8077,491.7604 717.5243,488.9929 C719.7324,486.7614 721.9476,484.4921 724.1700,482.1893 C724.6876,482.1893 724.8802,482.5337 724.7528,483.2215 C724.7314,483.3356 724.7100,483.4457 724.6876,483.5577 Z Z M715.3549,478.1236 C715.4639,477.8414 715.5414,477.5836 715.5883,477.3431 C715.6412,477.0639 715.6667,476.7765 715.6667,476.4800 C715.5852,476.0307 715.2816,475.8075 714.7639,475.8055 C713.6685,475.8055 710.7472,478.1644 706.0029,482.8842 C701.1781,487.6601 698.6276,490.7628 698.3555,492.1955 C698.1701,493.1788 698.1518,493.8951 698.3066,494.3445 C698.3749,494.8642 698.7275,495.1230 699.3592,495.1230 C700.3405,495.1230 701.6132,494.4912 703.1732,493.2277 C705.1398,491.6830 707.3367,489.3516 709.7700,486.2335 C708.8183,486.0644 708.3760,485.8046 708.4433,485.4540 C710.1124,483.9093 711.6204,482.4776 712.9675,481.1571 C714.2473,479.8915 715.0421,478.8807 715.3549,478.1236 Z Z M697.0930,506.6047 C695.1397,506.6047 692.0808,508.3328 687.9142,511.7871 C683.6804,515.2974 681.3776,518.0303 681.0056,519.9826 C680.8416,520.8386 681.1687,521.3868 681.9777,521.6252 C682.2080,521.6813 682.4342,521.7098 682.6574,521.7098 C684.2735,521.7098 686.3868,520.1212 688.9964,516.9492 C691.6589,513.5071 694.3571,510.0600 697.0930,506.6047 Z"
           style="fill-rule: evenodd; fill: #1b1918; "
           id="path25" />
        <path
           d="  M754.5748,475.9746 C754.1927,477.9840 752.7703,479.8518 750.3084,481.5789 C747.8476,483.3611 745.0373,484.2537 741.8775,484.2537 C741.3568,484.2537 740.8321,484.1406 740.2981,483.9164 C739.7683,483.6780 739.5573,483.2724 739.6664,482.6947 C739.7418,482.3014 741.3039,481.6136 744.3567,480.6292 C747.4227,479.6480 749.1112,478.3284 749.4270,476.6685 C749.6818,475.3347 748.9145,474.6703 747.1333,474.6683 C746.8521,474.6683 746.6279,474.6683 746.4588,474.6683 C743.9399,474.9088 741.8572,475.7138 740.2054,477.0904 C738.5659,478.4680 737.5571,480.1677 737.1720,482.1893 C736.9315,483.4528 737.0211,485.0892 737.4389,487.0966 C738.4151,491.6483 738.7819,494.5544 738.5435,495.8189 C738.1603,497.8283 737.2514,499.4363 735.8137,500.6437 C734.3097,501.9072 732.2381,502.5390 729.5970,502.5390 C726.9426,502.5390 725.1370,501.7391 724.1761,500.1383 C723.1643,498.5233 722.8861,496.5088 723.3446,494.0918 C723.6625,492.4207 724.4308,490.8128 725.6515,489.2680 C726.8600,487.7080 727.9992,486.8439 729.0722,486.6758 C729.1283,486.6758 729.1843,486.6758 729.2403,486.6758 C729.7040,486.6758 730.0158,486.8439 730.1778,487.1812 C730.1666,487.2372 730.1544,487.3024 730.1411,487.3707 C730.0657,487.7650 729.6214,488.5924 728.8052,489.8580 C727.9748,491.1918 727.4847,492.2587 727.3318,493.0596 C727.3114,493.1717 727.2900,493.2838 727.2697,493.3958 C727.0180,494.7174 727.2218,495.8954 727.8821,496.9347 C728.5546,497.9761 729.3830,498.4947 730.3653,498.4947 C731.7419,498.4947 732.8332,498.1789 733.6423,497.5471 C734.3851,496.9714 734.8538,496.1644 735.0515,495.1230 C735.2594,494.0276 734.8885,492.0202 733.9429,489.0989 C733.0105,486.1632 732.6824,483.9725 732.9575,482.5266 C733.5587,479.3647 735.5834,476.5778 739.0346,474.1629 C742.4166,471.8040 745.8077,470.6220 749.2080,470.6220 C751.4548,470.6220 753.0230,471.1152 753.9207,472.0985 C754.6737,473.0115 754.9243,474.1272 754.6747,475.4478 C754.6401,475.6302 754.6064,475.8055 754.5748,475.9746 Z"
           style="fill-rule: evenodd; fill: #1b1918; "
           id="path26" />
        <path
           d="  M810.5730,467.2523 C810.5526,467.3664 810.5292,467.4846 810.5047,467.6099 C810.2541,468.9305 808.8887,469.7589 806.4085,470.0972 C801.6836,470.7280 798.4504,471.3597 796.7161,471.9915 C792.9898,477.1199 790.0460,481.4098 787.8878,484.8641 C785.7307,488.3764 784.3316,491.0512 783.6866,492.8904 C783.5664,493.2277 783.4523,493.6862 783.3432,494.2599 C783.0783,495.6498 783.3748,496.3447 784.2318,496.3447 C785.8458,496.3447 787.8032,495.1393 790.1031,492.7223 C792.4039,490.2931 794.7770,487.8150 797.2246,485.2859 C798.1355,485.2859 798.4891,485.8331 798.2823,486.9285 C798.1936,487.3911 797.9919,487.8547 797.6801,488.3183 C794.8942,492.3361 792.1247,495.3849 789.3704,497.4635 C786.5520,499.5830 784.1105,500.6437 782.0461,500.6437 C780.7245,500.6437 779.6750,500.1027 778.8985,499.0215 C778.0569,497.9822 777.8052,496.5709 778.1445,494.7867 C778.6815,491.9642 780.3577,488.3132 783.1741,483.8318 C785.1652,480.6027 787.5006,477.3523 790.1907,474.0783 C789.5141,474.3025 788.6928,474.4156 787.7238,474.4156 C787.5414,474.4156 787.3661,474.4156 787.1980,474.4156 C785.9885,474.4156 785.4953,473.8399 785.7144,472.6864 C785.9233,471.5931 786.8974,470.8492 788.6459,470.4559 C790.3374,470.0483 792.0788,469.6418 793.8691,469.2321 C797.4885,464.7528 800.3385,461.5654 802.4295,459.6681 C804.2340,457.9970 805.6575,457.1635 806.6959,457.1615 C807.3847,457.1615 807.6180,457.7372 807.4020,458.8886 C807.3368,459.2259 807.2543,459.5133 807.1524,459.7527 C806.7437,460.7207 805.8206,461.9567 804.3848,463.4607 C802.5874,465.3020 801.4553,466.5645 800.9886,467.2523 C801.8874,467.0291 803.1152,466.7693 804.6742,466.4728 C806.2047,466.2486 807.4631,466.1365 808.4485,466.1365 C810.0065,466.1365 810.7157,466.5084 810.5730,467.2523 Z"
           style="fill-rule: evenodd; fill: #1b1918; "
           id="path27" />
        <path
           d="  M827.4603,476.3109 C826.6054,480.8065 823.7187,486.0175 818.8022,491.9428 C813.6472,498.1513 809.3431,501.2541 805.8888,501.2541 C804.2860,501.2541 803.2049,500.7354 802.6455,499.6961 C802.0290,498.7271 801.8935,497.3229 802.2450,495.4817 C803.1631,490.6508 806.0009,485.5315 810.7666,480.1249 C815.9114,474.2556 820.7260,471.3190 825.2064,471.3179 C826.3017,471.3179 827.0221,471.7826 827.3635,472.7078 C827.7099,473.6218 827.7415,474.8232 827.4603,476.3109 Z Z M823.1124,477.3431 C823.1745,476.4301 822.8597,475.9756 822.1719,475.9746 C820.7953,475.9746 818.1205,478.0747 814.1506,482.2738 C809.9137,486.7542 807.5385,490.3491 807.0229,493.0596 C806.8507,493.9736 806.9160,494.6604 807.2206,495.1230 C807.5406,495.5866 808.0439,495.8189 808.7328,495.8189 C809.8822,495.8189 811.1824,495.1862 812.6323,493.9226 C814.0120,492.7152 815.3143,490.8494 816.5411,488.3183 C815.7412,488.3183 815.3774,488.1166 815.4569,487.7080 C815.4671,487.6530 815.4773,487.5949 815.4885,487.5388 C815.5965,486.9631 816.3302,485.9819 817.6905,484.5900 C819.8323,482.4145 821.0480,481.1499 821.3404,480.7994 C822.3247,479.5349 822.9147,478.3845 823.1124,477.3431 Z"
           style="fill-rule: evenodd; fill: #1b1918; "
           id="path28" />
        <path
           d="  M892.9226,447.1553 C892.7504,448.0683 889.5814,452.0361 883.4147,459.0568 C873.5837,470.2226 867.6177,477.0690 865.5237,479.5970 C858.8159,487.7029 854.9051,493.3123 853.7934,496.4313 C854.9448,496.1358 857.5360,495.5031 861.5691,494.5340 C864.3590,493.8309 866.7546,493.3418 868.7609,493.0596 L870.8040,492.7223 C872.0114,492.7223 872.8500,493.0046 873.3208,493.5650 C873.6275,494.0847 873.7213,494.6604 873.6010,495.2921 C873.5786,495.4195 873.5562,495.5377 873.5348,495.6498 C873.3014,496.2815 872.8592,496.8033 872.2061,497.2108 C871.5549,497.6042 870.7663,497.7998 869.8400,497.7998 C866.2716,497.7998 862.1275,498.5793 857.4077,500.1383 C852.6094,501.7391 849.6635,502.5390 848.5671,502.5390 C846.9663,502.5390 846.3499,501.5628 846.7218,499.6115 C847.2802,496.6769 851.0524,490.6090 858.0384,481.4098 C864.2388,473.2356 871.0108,465.1247 878.3565,457.0769 C885.6319,449.0862 889.9860,445.0908 891.4207,445.0908 C892.6842,445.0908 893.1865,445.7797 892.9226,447.1553 Z"
           style="fill-rule: evenodd; fill: #1b1918; "
           id="path29" />
        <path
           d="  M913.0461,458.3628 C912.7496,459.9208 911.7143,461.4167 909.9393,462.8504 C908.3772,464.1139 907.1066,464.7456 906.1233,464.7456 C906.0112,464.7456 905.8991,464.7456 905.7870,464.7456 C904.6917,464.7456 904.2576,464.1424 904.4879,462.9349 C904.5296,462.7097 904.6061,462.4570 904.7161,462.1758 C905.2653,460.8410 906.2955,459.5133 907.8107,458.1937 C909.3147,456.9302 910.5527,456.2984 911.5207,456.2984 C912.7985,456.2984 913.3060,456.9862 913.0461,458.3628 Z Z M901.0213,474.4156 C901.0458,474.5837 901.0387,474.7590 901.0061,474.9424 C900.8318,475.8544 900.0564,477.0639 898.6747,478.5648 C893.4494,484.2537 888.9364,490.8963 885.1337,498.4947 C884.7678,499.5341 884.3103,500.2789 883.7611,500.7273 C883.2740,501.1349 882.8359,501.3387 882.4436,501.3387 C882.3183,501.3387 882.1990,501.3387 882.0859,501.3387 C881.3176,501.1695 881.0751,500.3350 881.3615,498.8320 C882.0391,495.2636 884.8096,490.0618 889.6793,483.2215 C894.4776,476.4372 897.9390,473.0441 900.0594,473.0441 C900.7248,473.1592 901.0458,473.6147 901.0213,474.4156 Z"
           style="fill-rule: evenodd; fill: #1b1918; "
           id="path30" />
        <path
           d="  M941.8054,446.2912 C938.2726,450.0287 934.4933,454.0210 930.4684,458.2783 C925.8820,463.0542 921.4638,468.7481 917.2147,475.3632 C918.8338,474.6765 920.3817,474.0997 921.8632,473.6361 C924.1793,472.8912 926.0634,472.5213 927.5093,472.5193 C928.8859,472.5193 929.9365,472.8637 930.6630,473.5515 C931.4028,474.2393 931.6830,475.0474 931.5098,475.9746 C931.2479,477.3523 930.1403,478.0380 928.1890,478.0380 C927.9485,478.0380 927.3096,477.7517 926.2672,477.1750 C925.6415,476.8377 925.0434,476.6685 924.4677,476.6685 C923.3142,476.6685 921.4893,477.0425 918.9898,477.7853 C916.4199,478.5852 914.3606,479.5919 912.8128,480.7994 C914.7590,481.4872 915.9930,483.0106 916.5147,485.3695 C916.9090,487.2107 916.8479,489.4861 916.3343,492.1955 C914.7397,500.5948 910.9522,508.4439 904.9708,515.7488 C899.6488,522.2498 895.2876,525.5014 891.8894,525.5024 C890.6809,525.5024 889.7251,524.8146 889.0159,523.4390 C888.2415,522.0471 888.0397,520.3760 888.4106,518.4236 C889.2075,514.2235 891.1466,509.3090 894.2238,503.6762 C897.8024,497.8630 901.3831,492.0478 904.9739,486.2335 C904.6122,486.2896 904.3197,486.3171 904.0945,486.3171 C903.6880,486.3171 903.3751,486.2631 903.1571,486.1490 C902.8534,485.9808 902.7291,485.7485 902.7852,485.4540 C902.7964,485.3990 902.8066,485.3430 902.8168,485.2859 C902.9574,484.5410 903.7573,483.5088 905.2164,482.1893 C906.6756,480.8697 908.4567,479.5145 910.5609,478.1236 C915.7841,470.8747 919.2037,466.1926 920.8147,464.0721 C925.2177,458.2008 928.8309,453.7429 931.6575,450.6941 C935.4144,446.6641 938.2390,444.5080 940.1333,444.2257 C941.5089,444.2257 942.0876,444.7964 941.8726,445.9335 C941.8492,446.0578 941.8268,446.1791 941.8054,446.2912 Z Z M912.1770,493.2277 C912.6161,490.9249 912.7659,489.0571 912.6324,487.6234 C912.4572,486.1785 911.7969,485.2869 910.6536,484.9486 C908.3355,488.3489 904.9280,494.0154 900.4303,501.9490 C895.8756,509.8847 893.4515,514.6310 893.1529,516.1911 C892.9858,518.5500 893.4341,519.8145 894.4969,519.9826 C894.5519,519.9826 894.6355,519.9826 894.7496,519.9826 C896.0682,519.9826 898.0460,518.3676 900.6841,515.1385 C903.4475,511.7525 906.0693,507.7856 908.5494,503.2339 C909.2637,501.9164 909.9638,500.3350 910.6506,498.4947 C911.3506,496.6555 911.8601,494.9008 912.1770,493.2277 Z"
           style="fill-rule: evenodd; fill: #1b1918; "
           id="path31" />
        <path
           d="  M951.9206,488.3183 C950.6846,490.6090 947.8733,493.1370 943.4856,495.9025 C938.6517,498.9512 934.6247,500.4746 931.4089,500.4746 C929.5686,500.4746 928.0748,499.8428 926.9254,498.5793 C925.7893,497.3138 925.4184,495.6447 925.8117,493.5650 C926.6208,489.3078 929.4596,484.7937 934.3262,480.0179 C939.2080,475.2450 943.4041,472.8586 946.9165,472.8566 C947.8438,472.8566 948.6192,473.1725 949.2438,473.8052 C949.8073,474.4502 950.0600,475.2298 950.0009,476.1427 C949.3651,479.4860 946.6995,482.9403 942.0061,486.5066 C938.1616,489.4433 934.6512,491.3956 931.4761,492.3636 C930.9717,495.0180 931.7309,496.3447 933.7525,496.3447 C936.5047,496.3447 939.3833,495.2799 942.3882,493.1431 C945.4298,490.7282 948.5071,488.2847 951.6170,485.8117 C951.6730,485.8117 951.7301,485.8117 951.7871,485.8117 C952.3608,485.8117 952.5565,486.2967 952.3741,487.2658 C952.2966,487.6744 952.1458,488.0239 951.9206,488.3183 Z Z M945.0528,478.5648 C945.0701,477.8791 944.7909,477.5346 944.2152,477.5326 C944.1612,477.5326 944.1031,477.5326 944.0481,477.5326 C943.1698,477.6467 941.5058,478.8257 939.0572,481.0725 C936.5577,483.3611 934.5616,485.5457 933.0718,487.6234 C935.0792,487.6234 937.5960,486.5015 940.6224,484.2537 C943.3063,482.2453 944.7858,480.5182 945.0620,479.0723 C945.0936,478.9021 945.0915,478.7329 945.0528,478.5648 Z"
           style="fill-rule: evenodd; fill: #1b1918; "
           id="path32" />
      </g>
    </g>
  </g>
</svg>
