<?xml version="1.0" encoding="UTF-8" standalone="no"?>
<!-- Uploaded to: SVG Repo, www.svgrepo.com, Generator: SVG Repo Mixer Tools -->
<svg width="800px" height="800px" viewBox="0 -9 64 64" version="1.1" xmlns="http://www.w3.org/2000/svg" xmlns:xlink="http://www.w3.org/1999/xlink" xmlns:sketch="http://www.bohemiancoding.com/sketch/ns">
    
    <title>Store</title>
    <desc>Created with Sketch.</desc>
    <defs>
</defs>
    <g id="Page-1" stroke="none" stroke-width="1" fill="none" fill-rule="evenodd" sketch:type="MSPage">
        <g id="Store" sketch:type="MSLayerGroup" transform="translate(1.000000, 1.000000)" stroke="#6B6C6E" stroke-width="2">
            <path d="M52.9,0 L8.1,0 C6.9,0 6,2 6,2 C6,2 -0.6,15.9 0.4,16.1 C1.6,19 4.7,21.1 8.2,21.1 C11.7,21.1 14.5,19 15.8,16.1 L15.8,16.1 C17.1,19 19.9,21.1 23.4,21.1 C26.9,21.1 29.8,19 31.1,16.1 L31.1,16.1 C32.3,19 35.2,21.1 38.8,21.1 C42.3,21.1 45.1,19 46.4,16.1 L46.4,16.1 C47.6,19 50.5,21.1 54,21.1 C57.6,21.1 60.6,19 61.8,16.1 C62.7,15.9 55.1,2 55.1,2 C55.1,2 54.1,0 52.9,0 L52.9,0 Z" id="Shape" sketch:type="MSShapeGroup">
</path>
            <path d="M55.9,21.1 L55.9,42 C55.9,43.1 55,44 53.9,44 L8,44 C6.9,44 6,43.1 6,42 L6,21.1" id="Shape" sketch:type="MSShapeGroup">
</path>
            <rect id="Rectangle-path" sketch:type="MSShapeGroup" x="10" y="25" width="24.9" height="12.9">
</rect>
            <rect id="Rectangle-path" sketch:type="MSShapeGroup" x="39" y="24" width="12.9" height="19.9">
</rect>
            <path d="M15.7,16.1 L19.1,0" id="Shape" sketch:type="MSShapeGroup">
</path>
            <path d="M30.9,16.1 L30.9,0" id="Shape" sketch:type="MSShapeGroup">
</path>
            <path d="M46.3,16 L41.7,0.3" id="Shape" sketch:type="MSShapeGroup">
</path>
            <path d="M18.1,25.1 L18.1,38" id="Shape" sketch:type="MSShapeGroup">
</path>
            <path d="M27,25.1 L27,38" id="Shape" sketch:type="MSShapeGroup">
</path>
        </g>
    </g>
</svg>